<?xml version="1.0" standalone="no"?>
<!DOCTYPE svg PUBLIC "-//W3C//DTD SVG 20010904//EN"
 "http://www.w3.org/TR/2001/REC-SVG-20010904/DTD/svg10.dtd">
<svg version="1.0" xmlns="http://www.w3.org/2000/svg"
 width="80.000000pt" height="80.000000pt" viewBox="0 0 80.000000 80.000000"
 preserveAspectRatio="xMidYMid meet">

<g transform="translate(0.000000,80.000000) scale(0.100000,-0.100000)"
fill="#000000" stroke="none">
<path d="M17 782 c-15 -17 -17 -58 -17 -384 0 -341 1 -366 18 -381 17 -15 58
-17 384 -17 341 0 366 1 381 18 15 17 17 58 17 384 0 341 -1 366 -18 381 -16
14 -43 17 -168 17 -131 0 -153 -2 -182 -20 -32 -20 -32 -20 -65 0 -28 18 -50
20 -183 20 -134 0 -153 -2 -167 -18z m342 -58 c20 -25 21 -39 21 -271 0 -238
0 -243 -19 -233 -11 5 -84 10 -165 10 l-146 0 0 260 0 260 144 0 c144 0 145 0
165 -26z m391 -234 l0 -260 -146 0 c-81 0 -154 -5 -165 -10 -19 -10 -19 -5
-19 233 0 318 -13 297 186 297 l144 0 0 -260z m-411 -313 c29 -15 52 -65 24
-51 -10 5 -84 10 -165 12 l-148 3 0 25 0 24 133 0 c85 0 141 -5 156 -13z m411
-11 l0 -25 -147 -3 c-82 -2 -156 -7 -166 -12 -16 -8 -16 -6 -6 17 18 39 44 46
187 46 l132 1 0 -24z m-395 -96 c18 -20 17 -20 -143 -20 -155 0 -162 1 -162
20 0 19 7 20 143 20 131 0 146 -2 162 -20z m395 0 c0 -19 -7 -20 -162 -20
-160 0 -161 0 -143 20 16 18 31 20 162 20 136 0 143 -1 143 -20z"/>
<path d="M111 701 c-28 -18 -4 -41 43 -41 45 0 65 17 43 39 -13 13 -66 14 -86
2z"/>
<path d="M105 600 c-14 -23 11 -30 111 -30 97 0 104 1 104 20 0 19 -7 20 -104
20 -59 0 -108 -4 -111 -10z"/>
<path d="M103 504 c-10 -27 17 -34 117 -32 87 3 95 5 95 23 0 19 -8 20 -103
23 -87 2 -103 0 -109 -14z"/>
<path d="M104 415 c-9 -24 5 -35 45 -35 44 0 66 17 50 37 -16 18 -88 17 -95
-2z"/>
<path d="M105 320 c-14 -23 11 -30 111 -30 97 0 104 1 104 20 0 19 -7 20 -104
20 -59 0 -108 -4 -111 -10z"/>
<path d="M484 695 c-10 -25 9 -37 52 -33 31 2 39 7 39 23 0 16 -8 21 -43 23
-32 2 -44 -1 -48 -13z"/>
<path d="M480 590 c0 -20 5 -21 108 -18 87 2 107 6 107 18 0 12 -20 16 -107
18 -103 3 -108 2 -108 -18z"/>
<path d="M483 505 c-11 -29 12 -36 113 -33 91 3 99 5 99 23 0 19 -8 20 -103
23 -86 2 -103 0 -109 -13z"/>
<path d="M484 415 c-10 -25 9 -37 52 -33 31 2 39 7 39 23 0 16 -8 21 -43 23
-32 2 -44 -1 -48 -13z"/>
<path d="M480 310 c0 -20 5 -21 108 -18 87 2 107 6 107 18 0 12 -20 16 -107
18 -103 3 -108 2 -108 -18z"/>
</g>
</svg>
