<?xml version="1.0" standalone="no"?>
<!DOCTYPE svg PUBLIC "-//W3C//DTD SVG 20010904//EN"
 "http://www.w3.org/TR/2001/REC-SVG-20010904/DTD/svg10.dtd">
<svg version="1.0" xmlns="http://www.w3.org/2000/svg"
 width="80.000000pt" height="80.000000pt" viewBox="0 0 80.000000 80.000000"
 preserveAspectRatio="xMidYMid meet">

<g transform="translate(0.000000,80.000000) scale(0.100000,-0.100000)"
fill="#000000" stroke="none">
<path d="M330 791 c-117 -38 -189 -137 -190 -259 0 -77 11 -105 89 -221 77
-114 80 -121 50 -121 -67 0 -159 -52 -159 -89 0 -25 38 -57 90 -78 35 -13 77
-17 190 -17 128 0 152 3 203 23 61 24 82 49 73 87 -8 29 -68 62 -131 71 -25 3
-45 7 -45 9 0 1 34 55 74 119 86 133 104 191 86 270 -6 26 -15 56 -21 67 -21
39 -83 100 -123 120 -44 22 -145 33 -186 19z m188 -74 c78 -51 119 -160 92
-243 -18 -55 -198 -326 -213 -321 -20 6 -196 286 -208 330 -24 90 26 200 111
245 63 33 159 29 218 -11z m-166 -592 c27 -34 70 -33 97 1 19 24 25 26 68 19
64 -9 116 -32 111 -47 -14 -41 -278 -64 -379 -34 -99 29 -102 46 -13 71 73 20
94 18 116 -10z"/>
<path d="M342 688 c-6 -6 -12 -26 -12 -44 0 -27 -4 -32 -29 -37 -16 -3 -31
-12 -34 -20 -8 -21 12 -179 24 -194 16 -18 202 -18 217 0 6 7 16 52 22 101 11
83 11 91 -6 103 -10 7 -26 13 -35 13 -14 0 -19 10 -21 43 l-3 42 -55 3 c-34 2
-60 -2 -68 -10z m88 -53 c0 -21 -5 -25 -30 -25 -22 0 -30 5 -30 18 0 25 9 32
37 32 18 0 23 -5 23 -25z m56 -112 c-3 -21 -6 -50 -6 -65 l0 -28 -80 0 -80 0
0 34 c0 18 -3 48 -6 65 l-6 31 92 0 93 0 -7 -37z"/>
</g>
</svg>
