<?xml version="1.0" standalone="no"?>
<!DOCTYPE svg PUBLIC "-//W3C//DTD SVG 20010904//EN"
 "http://www.w3.org/TR/2001/REC-SVG-20010904/DTD/svg10.dtd">
<svg version="1.0" xmlns="http://www.w3.org/2000/svg"
 width="80.000000pt" height="80.000000pt" viewBox="0 0 80.000000 80.000000"
 preserveAspectRatio="xMidYMid meet">

<g transform="translate(0.000000,80.000000) scale(0.100000,-0.100000)"
fill="#000000" stroke="none">
<path d="M728 763 l-37 -37 -113 27 c-62 15 -124 27 -138 27 -18 0 -75 -50
-232 -208 -176 -176 -208 -212 -208 -237 0 -24 25 -54 153 -182 127 -127 158
-153 182 -153 24 0 62 33 237 207 239 238 224 208 182 379 l-27 105 38 39 c24
25 36 44 32 54 -10 25 -29 19 -69 -21z m-165 -54 l88 -22 -27 -28 c-19 -20
-34 -27 -49 -23 -30 8 -75 -31 -75 -65 0 -43 26 -71 65 -71 44 0 78 34 72 72
-2 20 4 35 24 54 l28 27 7 -29 c3 -16 15 -63 25 -104 l18 -75 -197 -198 c-108
-108 -201 -197 -207 -197 -13 0 -285 272 -285 285 0 20 394 405 410 400 8 -2
55 -14 103 -26z m24 -135 c3 -8 1 -20 -5 -26 -15 -15 -43 8 -35 28 7 19 32 18
40 -2z"/>
<path d="M305 528 c-28 -16 -35 -28 -35 -64 0 -39 27 -64 68 -64 58 0 90 76
49 117 -19 18 -60 24 -82 11z m52 -54 c8 -22 -18 -37 -36 -20 -7 8 -10 19 -7
25 10 16 36 13 43 -5z"/>
<path d="M440 384 c-8 -1 -68 -8 -133 -15 -86 -8 -120 -16 -124 -26 -12 -30
13 -33 157 -17 160 17 193 25 184 49 -6 14 -43 18 -84 9z"/>
<path d="M338 296 c-33 -17 -46 -61 -27 -94 20 -36 78 -43 108 -13 55 55 -12
141 -81 107z m49 -52 c8 -21 -13 -42 -28 -27 -13 13 -5 43 11 43 6 0 13 -7 17
-16z"/>
</g>
</svg>
